<svg xmlns="http://www.w3.org/2000/svg" viewBox="0 0 1200 630" role="img" aria-label="CAMBTI social preview">
  <defs>
    <linearGradient id="bg" x1="0" y1="0" x2="1" y2="1">
      <stop offset="0%" stop-color="#f3efe4"/>
      <stop offset="100%" stop-color="#d8ccb5"/>
    </linearGradient>
  </defs>
  <rect width="1200" height="630" fill="url(#bg)"/>
  <circle cx="160" cy="110" r="120" fill="#c76431" opacity="0.14"/>
  <circle cx="1040" cy="120" r="140" fill="#314f7d" opacity="0.12"/>
  <rect x="66" y="58" width="1068" height="514" rx="34" fill="#fffaf2" stroke="#d8cbb8"/>
  <text x="110" y="150" fill="#64584d" font-size="24" font-family="PingFang SC, Microsoft YaHei, sans-serif" letter-spacing="4">CAMBTI / Camera Brand Type Indicator</text>
  <text x="110" y="255" fill="#201b16" font-size="74" font-family="Songti SC, STSong, serif" font-weight="700">相机品牌人格测试</text>
  <text x="110" y="332" fill="#201b16" font-size="34" font-family="PingFang SC, Microsoft YaHei, sans-serif">31 道题，测出你的相机品牌 MBTI 和器材圈嘴脸</text>
  <g transform="translate(820 134)">
    <rect x="0" y="0" width="214" height="214" rx="28" fill="#ede4d3"/>
    <rect x="54" y="18" width="108" height="12" fill="#455666"/>
    <rect x="42" y="42" width="132" height="24" fill="#2b3641"/>
    <rect x="42" y="66" width="132" height="24" fill="#7ea9c3"/>
    <rect x="66" y="90" width="84" height="24" fill="#efc3a1"/>
    <rect x="54" y="114" width="108" height="24" fill="#455666"/>
    <rect x="42" y="138" width="132" height="24" fill="#4f7188"/>
    <rect x="66" y="162" width="84" height="24" fill="#d7e6ee"/>
    <rect x="54" y="192" width="108" height="18" rx="9" fill="#201b16" opacity="0.08"/>
    <text x="108" y="205" text-anchor="middle" fill="#201b16" font-size="16" font-family="PingFang SC, Microsoft YaHei, sans-serif" font-weight="700">大疆</text>
  </g>
  <g transform="translate(110 410)">
    <rect x="0" y="0" width="184" height="74" rx="18" fill="#f0e4d1"/>
    <text x="24" y="31" fill="#64584d" font-size="18" font-family="PingFang SC, Microsoft YaHei, sans-serif">人格类型</text>
    <text x="24" y="58" fill="#201b16" font-size="28" font-family="PingFang SC, Microsoft YaHei, sans-serif" font-weight="700">参数老法师</text>
  </g>
  <g transform="translate(320 410)">
    <rect x="0" y="0" width="184" height="74" rx="18" fill="#f0e4d1"/>
    <text x="24" y="31" fill="#64584d" font-size="18" font-family="PingFang SC, Microsoft YaHei, sans-serif">MBTI</text>
    <text x="24" y="58" fill="#201b16" font-size="28" font-family="PingFang SC, Microsoft YaHei, sans-serif" font-weight="700">SONY</text>
  </g>
  <g transform="translate(530 410)">
    <rect x="0" y="0" width="260" height="74" rx="18" fill="#f0e4d1"/>
    <text x="24" y="31" fill="#64584d" font-size="18" font-family="PingFang SC, Microsoft YaHei, sans-serif">一句话</text>
    <text x="24" y="58" fill="#201b16" font-size="22" font-family="PingFang SC, Microsoft YaHei, sans-serif" font-weight="700">测完很容易当场破防</text>
  </g>
</svg>
